# xmcd
# 
# Track frame offsets:
#     150
#     17296
#     36550
#     53411
#     70763
#     89156
#     105853
#     119853
#     140207
#     158251
# 
# Disc length: 2315
# 
# Revision: 1
# Processed by: cddbd v1.5.2PL0 Copyright (c) Steve Scherf et al.
# Submitted via: fre:ac v1.0.17
# 
DISCID=8009090a
DTITLE=方皓玟 - Charmaine Fong 404 Not Found
DYEAR=2015
DGENRE=
TTITLE0=你是你本身的傳奇
TTITLE1=哭乾了眼淚
TTITLE2=虛偽
TTITLE3=無人像你
TTITLE4=分手總約在雨天
TTITLE5=Dt'z it
TTITLE6=TMD
TTITLE7=Life Is So Beautiful
TTITLE8=唵嘛呢叭咪吽
TTITLE9=我 Like 你
EXTD=
EXTT0=
EXTT1=
EXTT2=
EXTT3=
EXTT4=
EXTT5=
EXTT6=
EXTT7=
EXTT8=
EXTT9=
PLAYORDER=
